<?xml version="1.0" standalone="no"?><!DOCTYPE svg PUBLIC "-//W3C//DTD SVG 1.1//EN" "http://www.w3.org/Graphics/SVG/1.1/DTD/svg11.dtd"><svg t="1506075452409" class="icon" style="" viewBox="0 0 1024 1024" version="1.1" xmlns="http://www.w3.org/2000/svg" p-id="4612" xmlns:xlink="http://www.w3.org/1999/xlink" width="200" height="200"><defs><style type="text/css"></style></defs><path d="M769.72121 876.730737l-184.086578 0 0-50.807896c184.712473-34.534642 324.471003-196.236292 324.471003-390.999892 0-163.468881-98.412685-303.595585-239.165282-364.933233-0.147269 0.220904-0.368173 0.40499-0.515442 0.625894C621.789235 49.335203 568.477762 36.817316 512 36.817316S402.210765 49.335203 353.575091 70.615611C353.427822 70.394708 353.243735 70.173804 353.096466 69.9529 212.307051 131.290548 113.931183 271.454068 113.931183 434.92295c0 194.7636 139.75853 356.46525 324.471003 390.999892l0 50.807896-184.086578 0c-35.307806 0-36.817316 36.817316-36.817316 36.817316l0 73.634631 220.903894 0 147.269263 0 220.903894 0 0-73.634631C806.538525 893.261712 790.044368 876.730737 769.72121 876.730737zM644.431884 99.701291c-34.829181 32.325603-81.108546 52.39104-132.431884 52.39104S414.397296 132.026894 379.568116 99.701291C420.65624 83.280768 465.131557 73.634631 512 73.634631S603.34376 83.280768 644.431884 99.701291zM316.426419 434.92295C316.426419 326.827311 403.867544 239.312552 512 239.312552c108.058821 0 195.610398 87.514759 195.610398 195.610398s-87.551577 195.610398-195.610398 195.610398C403.867544 630.49653 316.426419 542.981771 316.426419 434.92295zM615.567109 434.92295C615.567109 377.672024 569.214109 331.355841 512 331.355841c-19.697264 0-37.885018 5.780319-53.569194 15.316003 4.896703-1.50951 9.977493-2.503577 15.316003-2.503577 29.012045 0 52.501492 23.489447 52.501492 52.501492 0 28.975227-23.489447 52.501492-52.501492 52.501492-29.012045 0-52.501492-23.526265-52.501492-52.501492 0-5.375328 1.030885-10.456118 2.540395-15.352821-9.572502 15.684176-15.352821 33.908748-15.352821 53.606012 0 57.250926 46.316183 103.567109 103.567109 103.567109C569.214109 538.453241 615.567109 492.137058 615.567109 434.92295z" p-id="4613"></path></svg>