<?xml version="1.0" encoding="iso-8859-1"?>
<!-- Generator: Adobe Illustrator 18.0.0, SVG Export Plug-In . SVG Version: 6.00 Build 0)  -->
<!DOCTYPE svg PUBLIC "-//W3C//DTD SVG 1.1//EN" "http://www.w3.org/Graphics/SVG/1.1/DTD/svg11.dtd">
<svg version="1.1" id="Capa_1" xmlns="http://www.w3.org/2000/svg" xmlns:xlink="http://www.w3.org/1999/xlink" x="0px" y="0px"
	 viewBox="0 0 21.215 21.334" style="enable-background:new 0 0 21.215 21.334;" xml:space="preserve">
<path d="M11.63,21.334H9.636c-0.588,0-1.067-0.479-1.067-1.067V17.89c0-0.092-0.101-0.229-0.189-0.256l-1.242-0.495
	c-0.141-0.067-0.308-0.028-0.366,0.03l-1.608,1.608c-0.402,0.402-1.106,0.402-1.509,0l-1.41-1.41c-0.416-0.416-0.416-1.092,0-1.508
	l1.606-1.606c0.066-0.066,0.093-0.237,0.05-0.321L3.411,12.73c-0.042-0.127-0.18-0.229-0.273-0.229h-2.07
	C0.479,12.501,0,12.023,0,11.435V9.44c0-0.588,0.479-1.067,1.067-1.067h2.119c0.096,0,0.238-0.104,0.268-0.194l0.353-0.867
	c0.059-0.121,0.03-0.297-0.038-0.366l-1.42-1.42c-0.416-0.416-0.416-1.093,0-1.509l1.41-1.41c0.403-0.403,1.107-0.402,1.509,0
	l1.369,1.369c0.049,0.05,0.234,0.087,0.312,0.046l1.391-0.577c0.131-0.043,0.232-0.181,0.232-0.274V1.067
	C8.569,0.479,9.048,0,9.636,0h1.994c0.588,0,1.067,0.479,1.067,1.067V3.25c0,0.098,0.105,0.245,0.198,0.276l0.931,0.393
	c0.122,0.059,0.297,0.026,0.355-0.032l1.507-1.506c0.401-0.402,1.106-0.403,1.509,0l1.41,1.41c0.201,0.201,0.312,0.469,0.312,0.754
	S18.809,5.099,18.608,5.3l-1.501,1.501c-0.066,0.066-0.092,0.235-0.049,0.318l0.434,1.022c0.044,0.127,0.189,0.232,0.286,0.232
	h2.371c0.588,0,1.067,0.479,1.067,1.067v1.994c0,0.588-0.479,1.067-1.067,1.067h-2.323c-0.094,0-0.234,0.102-0.263,0.192
	l-0.594,1.408c-0.064,0.123-0.041,0.286,0.023,0.35l1.702,1.702c0.201,0.2,0.312,0.468,0.312,0.753c0,0.286-0.111,0.554-0.312,0.755
	l-1.41,1.41c-0.401,0.402-1.106,0.403-1.509,0l-1.782-1.782c-0.061-0.061-0.304-0.072-0.337-0.056l-0.731,0.297
	c-0.122,0.042-0.226,0.185-0.226,0.281v2.455C12.697,20.855,12.219,21.334,11.63,21.334z M6.987,16.099
	c0.203,0,0.399,0.045,0.566,0.132l1.16,0.461c0.472,0.144,0.856,0.665,0.856,1.198v2.377l2.061,0.067
	c0.036,0,0.067-0.031,0.067-0.067v-2.455c0-0.529,0.379-1.053,0.882-1.219l0.668-0.271c0.367-0.184,1.093-0.097,1.451,0.261
	l1.782,1.782l1.505-1.41l-1.702-1.796c-0.379-0.379-0.472-1.02-0.216-1.491l0.557-1.321c0.146-0.463,0.668-0.845,1.2-0.845h2.323
	l0.067-2.061l-2.438-0.067c-0.529,0-1.054-0.378-1.221-0.879l-0.402-0.949c-0.229-0.435-0.131-1.075,0.245-1.451l1.501-1.501
	l-1.41-1.504l-1.602,1.506C14.524,4.959,13.86,5.062,13.4,4.824L12.539,4.46c-0.465-0.157-0.841-0.683-0.841-1.21V1.067L9.636,1
	L9.569,3.172c0,0.533-0.383,1.055-0.892,1.213l-1.304,0.54c-0.126,0.07-0.326,0.119-0.534,0.119c-0.35,0-0.683-0.132-0.912-0.361
	L4.559,3.314l-1.505,1.41l1.42,1.515c0.374,0.374,0.477,1.012,0.242,1.485L4.392,8.523c-0.152,0.47-0.676,0.85-1.206,0.85H1.067
	L1,11.435l2.137,0.067c0.533,0,1.055,0.383,1.214,0.892l0.458,1.122c0.225,0.43,0.126,1.07-0.25,1.446l-1.606,1.605l1.41,1.505
	l1.703-1.608C6.297,16.231,6.633,16.099,6.987,16.099z M10.481,15.758c-2.882,0-5.227-2.345-5.227-5.227S7.6,5.305,10.481,5.305
	s5.227,2.345,5.227,5.227S13.363,15.758,10.481,15.758z M10.481,6.305c-2.331,0-4.227,1.896-4.227,4.227s1.896,4.227,4.227,4.227
	s4.227-1.896,4.227-4.227S12.812,6.305,10.481,6.305z"/>
<g>
</g>
<g>
</g>
<g>
</g>
<g>
</g>
<g>
</g>
<g>
</g>
<g>
</g>
<g>
</g>
<g>
</g>
<g>
</g>
<g>
</g>
<g>
</g>
<g>
</g>
<g>
</g>
<g>
</g>
</svg>
