<?xml version="1.0" standalone="no"?><!DOCTYPE svg PUBLIC "-//W3C//DTD SVG 1.1//EN" "http://www.w3.org/Graphics/SVG/1.1/DTD/svg11.dtd"><svg t="1515051415400" class="icon" style="" viewBox="0 0 1024 1024" version="1.1" xmlns="http://www.w3.org/2000/svg" p-id="1868" xmlns:xlink="http://www.w3.org/1999/xlink" width="200" height="200"><defs><style type="text/css"></style></defs><path d="M142.21312 577.83296c-21.39136 0-40.07424 0.59904-58.70592-0.10752-52.02432-1.98656-79.40608-46.7456-56.31488-93.48096 7.02464-14.22336 17.46944-27.3408 28.50816-38.90176 120.76032-126.3872 241.85344-252.45696 363.06944-378.40896 63.56992-66.048 133.43744-65.65888 197.504 0.95232 120.59648 125.3632 241.17248 250.74688 361.2672 376.59648 12.14976 12.72832 23.58784 27.47904 30.76608 43.3664 20.43904 45.22496-6.72256 87.56736-56.36608 89.82016-19.34848 0.88064-38.76352 0.14336-60.25728 0.14336-0.54784 12.12416-1.31072 21.22752-1.32096 30.336-0.1024 91.2384-0.1792 182.48704-0.03072 273.73056 0.06144 34.60096-8.66304 67.29728-33.00864 91.392-16.82432 16.6656-39.61856 35.7888-61.12256 37.62688-59.89376 5.10976-120.50944 1.77664-183.12704 1.77664-0.512-9.76896-1.408-18.92864-1.39264-28.08832 0.11776-100.61312 0.32768-201.23648 0.64-301.8496 0.10752-35.54304-5.96992-42.31168-40.94464-42.5984-36.66432-0.3072-73.33376-0.3584-109.99808 0.0256-33.36192 0.34304-39.56224 7.35744-39.47008 41.43616 0.26112 101.46304-0.37888 202.95168 1.152 304.39424 0.36864 24.53504-8.1408 30.35136-30.79168 29.46048-40.0128-1.57696-80.13824-0.24064-120.2176-0.49664-75.20256-0.48128-127.34976-52.66944-127.90784-129.43872-0.68608-94.64832-0.15872-189.312-0.26112-283.96032C143.872 594.89792 142.97088 588.25216 142.21312 577.83296zM203.82208 517.48864c0 13.30688 0 22.56384 0 31.83104 0.00512 110.90944-0.29696 221.824 0.15872 332.73856 0.2048 49.0496 25.51808 73.50784 74.36288 73.86112 18.76992 0.128 37.6576-1.31072 56.27904 0.36352 22.60992 2.02752 29.15328-6.27712 28.9024-28.83584-0.95232-86.144-1.33632-172.35456 0.91648-258.46784 1.52576-58.26048 32.86016-87.02464 90.78784-88.44288 37.51936-0.91648 75.07968-0.32256 112.61952-0.18944 70.50752 0.25088 100.60288 27.83744 102.53824 98.00192 1.83296 66.49344 0.5888 133.07392 1.21344 199.61856 0.2304 24.5248-7.36768 59.41248 5.39136 70.84544 14.72 13.184 47.9744 6.69696 73.20064 6.93248 56.76544 0.52224 80.00512-23.31136 80.06144-80.82944 0.10752-109.20448 0.03584-218.41408 0.03584-327.61856 0-9.07264 0-18.1504 0-30.5408 41.56928 0 80.04608 0 125.52704 0-10.90048-14.79168-16.768-24.87808-24.62208-33.07008-121.58464-126.90944-243.31776-253.66016-365.27104-380.21632-32.50688-33.73056-64.6656-34.03776-97.1776-0.34816C346.112 230.19008 223.81056 357.59616 101.66272 485.14048c-7.66464 8.00256-12.93312 18.29376-22.64576 32.34816C124.1856 517.48864 162.25792 517.48864 203.82208 517.48864z" p-id="1869"></path></svg>