<?xml version="1.0" standalone="no"?><!DOCTYPE svg PUBLIC "-//W3C//DTD SVG 1.1//EN" "http://www.w3.org/Graphics/SVG/1.1/DTD/svg11.dtd"><svg t="1515052101470" class="icon" style="" viewBox="0 0 1024 1024" version="1.1" xmlns="http://www.w3.org/2000/svg" p-id="16179" xmlns:xlink="http://www.w3.org/1999/xlink" width="200" height="200"><defs><style type="text/css"></style></defs><path d="M989.696 62.464H34.816C15.36 62.464 0 77.824 0 97.28v624.64c0 19.456 15.36 34.816 34.816 34.816h145.408c10.752 0 20.48-4.608 27.136-12.8l194.048-240.64 88.576 73.216c14.336 11.776 34.816 10.24 47.616-3.072l172.032-185.856c16.896 10.24 36.352 15.872 57.344 15.872 60.928 0 111.104-49.664 111.104-111.104s-49.664-111.104-111.104-111.104c-60.928 0-111.104 49.664-111.104 111.104 0 14.848 3.072 28.672 8.192 41.984l-155.648 167.936-90.112-74.752c-7.168-6.144-16.384-8.704-25.6-7.68-9.216 1.024-17.408 5.632-23.552 12.8L163.84 687.104H69.12V131.584h885.248V687.104H476.16c-19.456 0-34.816 15.36-34.816 34.816V891.904H238.08c-19.456 0-34.816 15.36-34.816 34.816s15.36 34.816 34.816 34.816h466.432c19.456 0 34.816-15.36 34.816-34.816s-15.36-34.816-34.816-34.816h-193.024v-135.168h478.208c19.456 0 34.816-15.36 34.816-34.816v-624.64C1024 77.824 1008.64 62.464 989.696 62.464z m-222.208 187.904c23.04 0 41.472 18.432 41.472 41.472s-18.432 41.472-41.472 41.472-41.472-18.432-41.472-41.472c-0.512-22.528 18.432-41.472 41.472-41.472z" fill="#707070" p-id="16180"></path></svg>