<?xml version="1.0" encoding="utf-8"?>
<!-- Generator: Adobe Illustrator 17.0.0, SVG Export Plug-In . SVG Version: 6.00 Build 0)  -->
<!DOCTYPE svg PUBLIC "-//W3C//DTD SVG 1.1//EN" "http://www.w3.org/Graphics/SVG/1.1/DTD/svg11.dtd">
<svg version="1.1" id="Layer_1" xmlns="http://www.w3.org/2000/svg" xmlns:xlink="http://www.w3.org/1999/xlink" x="0px" y="0px"
	 width="100px" height="100px" viewBox="0 0 100 100" enable-background="new 0 0 100 100" xml:space="preserve">
<path d="M68.366,56.667V50.5H48.66v-4.763h8.214V27.232H38.445v18.505h8.214V50.5H26.952v6.167h-8.214v18.505h18.429V56.667h-8.214
	V52.5H46.66v4.167h-8.214v18.505h18.429V56.667H48.66V52.5h17.707v4.167h-8.214v18.505h18.429V56.667H68.366z M40.445,29.232h14.429
	v14.505H40.445V29.232z M35.167,73.172H20.738V58.667h14.429V73.172z M54.874,73.172H40.445V58.667h14.429V73.172z M74.581,73.172
	H60.152V58.667h14.429V73.172z"/>
</svg>
