<?xml version="1.0" encoding="utf-8"?>
<!-- Generator: Adobe Illustrator 16.0.0, SVG Export Plug-In . SVG Version: 6.00 Build 0)  -->
<!DOCTYPE svg PUBLIC "-//W3C//DTD SVG 1.1//EN" "http://www.w3.org/Graphics/SVG/1.1/DTD/svg11.dtd">
<svg version="1.1" xmlns="http://www.w3.org/2000/svg" xmlns:xlink="http://www.w3.org/1999/xlink" x="0px" y="0px" width="96px"
	 height="96px" viewBox="0 0 96 96" enable-background="new 0 0 96 96" xml:space="preserve">
<g id="Layer_1">
	<g>
		<g>
			<polygon points="93.891,58.209 93.891,37.064 72.746,37.064 72.746,44.369 58.644,44.369 58.644,37.064 49.995,37.064 
				49.995,29.169 58.644,29.169 58.644,8.025 37.5,8.025 37.5,29.169 45.639,29.169 45.639,37.064 37.5,37.064 37.5,44.369 
				23.254,44.369 23.254,37.064 2.109,37.064 2.109,58.209 10.503,58.209 10.503,66.831 2.109,66.831 2.109,87.975 23.254,87.975 
				23.254,66.831 14.859,66.831 14.859,58.209 23.254,58.209 23.254,48.725 37.5,48.725 37.5,58.209 58.644,58.209 58.644,48.725 
				72.746,48.725 72.746,58.209 81.141,58.209 81.141,66.831 72.746,66.831 72.746,87.975 93.891,87.975 93.891,66.831 
				85.497,66.831 85.497,58.209 			"/>
		</g>
	</g>
</g>
<g id="Layer_2">
</g>
</svg>
