<?xml version="1.0" standalone="no"?><!DOCTYPE svg PUBLIC "-//W3C//DTD SVG 1.1//EN" "http://www.w3.org/Graphics/SVG/1.1/DTD/svg11.dtd"><svg t="1506312968278" class="icon" style="" viewBox="0 0 1024 1024" version="1.1" xmlns="http://www.w3.org/2000/svg" p-id="2587" xmlns:xlink="http://www.w3.org/1999/xlink" width="200" height="200"><defs><style type="text/css"></style></defs><path d="M512 1024C229.285566 1024 0.106644 794.767757 0.106644 512 0.106644 229.232243 229.285566 0 512 0 794.714434 0 1023.893356 229.232243 1023.893356 512 1023.893356 794.767757 794.714434 1024 512 1024ZM512 32.003999C246.956551 32.003999 32.099979 246.913893 32.099979 512 32.099979 777.096772 246.956551 991.996001 512 991.996001 777.043449 991.996001 991.900021 777.096772 991.900021 512 991.900021 246.913893 777.043449 32.003999 512 32.003999ZM639.973339 714.677775 618.644449 714.677775C595.08669 714.677775 575.986669 695.577755 575.986669 672.019996L575.986669 352.086649C575.986669 328.52889 595.08669 309.428869 618.644449 309.428869L639.973339 309.428869C663.531098 309.428869 682.631119 328.52889 682.631119 352.086649L682.631119 672.019996C682.631119 695.577755 663.531098 714.677775 639.973339 714.677775ZM405.355551 714.677775 384.026661 714.677775C360.468902 714.677775 341.368881 695.577755 341.368881 672.019996L341.368881 352.086649C341.368881 328.52889 360.468902 309.428869 384.026661 309.428869L405.355551 309.428869C428.91331 309.428869 448.013331 328.52889 448.013331 352.086649L448.013331 672.019996C448.013331 695.577755 428.91331 714.677775 405.355551 714.677775Z" p-id="2588"></path></svg>