<?xml version="1.0" encoding="utf-8"?>
<!-- Generator: Adobe Illustrator 21.0.0, SVG Export Plug-In . SVG Version: 6.00 Build 0)  -->
<svg version="1.1" id="图层_1" xmlns="http://www.w3.org/2000/svg" xmlns:xlink="http://www.w3.org/1999/xlink" x="0px" y="0px"
	 viewBox="0 0 200 200" style="enable-background:new 0 0 200 200;" xml:space="preserve">
<path d="M155.9,76h-8V59.5c0-28.4-20.7-51.5-46.2-51.5H98C72.6,8,51.9,31.1,51.9,59.5V76h-8V59.5C43.9,26.7,68.1,0,98,0h3.7
	c29.9,0,54.2,26.7,54.2,59.6V76z"/>
<path d="M163.9,200h-128c-11,0-20-9-20-20V92c0-11,9-20,20-20h128c11,0,20,9,20,20v88C183.9,191,174.9,200,163.9,200z M35.9,80
	c-6.6,0-12,5.4-12,12v88c0,6.6,5.4,12,12,12h128c6.6,0,12-5.4,12-12V92c0-6.6-5.4-12-12-12C163.9,80,35.9,80,35.9,80z"/>
<path d="M99.9,172L99.9,172c-2.3,0-4-1.9-4-4.1c0.2-9.2,0.3-19.3,0.2-24.3c-11-2-20.2-12.4-20.2-23.7c0-13.2,10.8-24,24-24
	c13.2,0,24,10.8,24,24c0,7.6-3.6,14.7-9.7,19.3c-1.8,1.3-4.3,1-5.6-0.8c-1.3-1.8-1-4.3,0.8-5.6c4.1-3.1,6.5-7.7,6.5-12.8
	c0-8.8-7.2-16-16-16s-16,7.2-16,16c0,8.2,7.8,16,16,16c1.1,0,2.1,0.4,2.9,1.2c1.5,1.5,1.7,1.7,1.1,30.9
	C103.8,170.2,102.1,172,99.9,172L99.9,172z"/>
</svg>
