<?xml version="1.0" standalone="no"?><!DOCTYPE svg PUBLIC "-//W3C//DTD SVG 1.1//EN" "http://www.w3.org/Graphics/SVG/1.1/DTD/svg11.dtd"><svg t="1515567319275" class="icon" style="" viewBox="0 0 1177 1024" version="1.1" xmlns="http://www.w3.org/2000/svg" p-id="9357" xmlns:xlink="http://www.w3.org/1999/xlink" width="229.8828125" height="200"><defs><style type="text/css"></style></defs><path d="M819.2 153.6h204.9024A153.5232 153.5232 0 0 1 1177.6 307.2v563.2c0 84.8128-68.864 153.6-153.728 153.6H153.728A153.6512 153.6512 0 0 1 0 870.4V307.2c0-84.9152 68.6848-153.6 153.7792-153.6H358.4V76.7488A76.7232 76.7232 0 0 1 435.0464 0h307.5072A76.5696 76.5696 0 0 1 819.2 76.7488V153.6zM372.3264 204.8H153.7792A102.3232 102.3232 0 0 0 51.2 307.2v563.2c0 56.576 45.8752 102.4 102.528 102.4h870.144A102.4768 102.4768 0 0 0 1126.4 870.4V307.2c0-56.576-45.7984-102.4-102.2976-102.4H768V76.7488A25.3696 25.3696 0 0 0 742.5536 51.2H435.0464a25.5232 25.5232 0 0 0-25.4464 25.5488V204.8h-37.2736zM588.8 870.4a230.4 230.4 0 1 1 0-460.8 230.4 230.4 0 0 1 0 460.8z m0-51.2a179.2 179.2 0 1 0 0-358.4 179.2 179.2 0 0 0 0 358.4zM256 486.4a102.4 102.4 0 1 1 0-204.8 102.4 102.4 0 0 1 0 204.8z m0-51.2a51.2 51.2 0 1 0 0-102.4 51.2 51.2 0 0 0 0 102.4z" p-id="9358"></path></svg>