<?xml version="1.0" standalone="no"?><!DOCTYPE svg PUBLIC "-//W3C//DTD SVG 1.1//EN" "http://www.w3.org/Graphics/SVG/1.1/DTD/svg11.dtd"><svg t="1515051762718" class="icon" style="" viewBox="0 0 1024 1024" version="1.1" xmlns="http://www.w3.org/2000/svg" p-id="1846" xmlns:xlink="http://www.w3.org/1999/xlink" width="200" height="200"><defs><style type="text/css"></style></defs><path d="M854.3 141.3H169.2c-57.9 0-105 50.4-105 112.4v512.2c0 62 47.1 112.4 105 112.4h685.2c57.9 0 105-50.4 105-112.4V253.7c-0.1-62-47.2-112.4-105.1-112.4z m-685.1 56.1h685.2c29 0 52.6 25.3 52.6 56.3v383.9c-73.8-148.8-155.6-226.5-244-230-109.9-4.7-193.8 107.3-228 162.3-48.8-39.8-99.3-55.2-150.2-46.1-75.7 13.6-133.7 79.8-168.3 131.3V253.7c0.1-31 23.7-56.3 52.7-56.3z m685.1 624.8H169.2c-29 0-52.6-25.3-52.6-56.3v-14.2c4.9-2.6 9.2-6.4 11.7-11.8 18.7-40.7 84.8-149.7 165.9-164.3 41.9-7.7 85.2 10.8 128.8 54.4 6 6 14.6 8.7 22.8 7.4 8.3-1.3 15.6-6.6 19.4-14.2 23.6-46.5 103.9-166.5 195.9-163 79.8 3.2 160.7 99.6 234.1 278.7 2.4 5.8 6.8 9.8 11.9 12.6v14.4c-0.2 31-23.8 56.3-52.8 56.3z" fill="" p-id="1847"></path><path d="M303.1 445.5c44.2 0 80.2-36 80.2-80.2s-36-80.2-80.2-80.2-80.2 35.9-80.2 80.2 36 80.2 80.2 80.2z m0-107.7c15.1 0 27.5 12.3 27.5 27.4 0 15.1-12.3 27.5-27.5 27.5-15.1 0-27.5-12.4-27.5-27.5 0.1-15.1 12.4-27.4 27.5-27.4z" fill="" p-id="1848"></path></svg>