<?xml version="1.0" standalone="no"?><!DOCTYPE svg PUBLIC "-//W3C//DTD SVG 1.1//EN" "http://www.w3.org/Graphics/SVG/1.1/DTD/svg11.dtd"><svg t="1506411039130" class="icon" style="" viewBox="0 0 1024 1024" version="1.1" xmlns="http://www.w3.org/2000/svg" p-id="4221" xmlns:xlink="http://www.w3.org/1999/xlink" width="200" height="200"><defs><style type="text/css"></style></defs><path d="M352.128 480h-192c-52.928 0-96-43.072-96-96V192c0-52.928 43.072-96 96-96h192c52.928 0 96 43.072 96 96v192c0 52.928-43.072 96-96 96z m-192-320c-17.664 0-32 14.4-32 32v192c0 17.6 14.336 32 32 32h192c17.664 0 32-14.4 32-32V192c0-17.6-14.336-32-32-32h-192zM352 960H160c-52.928 0-96-43.072-96-96V672c0-52.928 43.072-96 96-96h192c52.928 0 96 43.072 96 96v192c0 52.928-43.072 96-96 96zM160 640c-17.664 0-32 14.4-32 32v192c0 17.6 14.336 32 32 32h192c17.664 0 32-14.4 32-32V672c0-17.6-14.336-32-32-32H160z m672 320H640c-52.928 0-96-43.072-96-96V672c0-52.928 43.072-96 96-96h192c52.928 0 96 43.072 96 96v192c0 52.928-43.072 96-96 96zM640 640c-17.6 0-32 14.4-32 32v192c0 17.6 14.4 32 32 32h192c17.6 0 32-14.4 32-32V672c0-17.6-14.4-32-32-32H640z m96-128a32.142 32.142 0 0 1-22.656-9.344l-192-192c-12.48-12.48-12.48-32.768 0-45.248l192-192c12.48-12.48 32.768-12.48 45.248 0l192 192c12.48 12.48 12.48 32.768 0 45.248l-192 192C752.384 508.864 744.192 512 736 512zM589.248 288L736 434.752 882.752 288 736 141.248 589.248 288z" p-id="4222"></path></svg>