<?xml version="1.0" standalone="no"?><!DOCTYPE svg PUBLIC "-//W3C//DTD SVG 1.1//EN" "http://www.w3.org/Graphics/SVG/1.1/DTD/svg11.dtd"><svg t="1506312963991" class="icon" style="" viewBox="0 0 1024 1024" version="1.1" xmlns="http://www.w3.org/2000/svg" p-id="2476" xmlns:xlink="http://www.w3.org/1999/xlink" width="200" height="200"><defs><style type="text/css"></style></defs><path d="M512 0c-282.790268 0-512 229.24932-512 512s229.209732 512 512 512c282.75068 0 512-229.24932 512-512s-229.24932-512-512-512z m0 981.335093C252.793402 981.335093 42.667546 771.209237 42.667546 512c0-259.206598 210.125856-469.332454 469.332454-469.332454 259.209237 0 469.335093 210.125856 469.335093 469.332454 0 259.209237-210.125856 469.335093-469.335093 469.335093z m228.209485-541.334433l-225.084701-143.206928c-27.04099-17.210062-58.75068-18.249897-86.873732-2.834474-28.083464 15.457649-44.251052 42.749361-44.251052 74.833814v286.416495c0 32.084454 16.167588 59.373526 44.251052 74.791588 28.125691 15.457649 59.832742 14.417814 86.873732-2.792248l225.084701-143.209567c25.415258-16.164948 39.500536-41.875794 39.500536-71.99934 0-30.126186-14.085278-55.831753-39.500536-71.99934z" p-id="2477"></path></svg>