<?xml version="1.0" standalone="no"?><!DOCTYPE svg PUBLIC "-//W3C//DTD SVG 1.1//EN" "http://www.w3.org/Graphics/SVG/1.1/DTD/svg11.dtd"><svg t="1515566558818" class="icon" style="" viewBox="0 0 1024 1024" version="1.1" xmlns="http://www.w3.org/2000/svg" p-id="3401" xmlns:xlink="http://www.w3.org/1999/xlink" width="200" height="200"><defs><style type="text/css"></style></defs><path d="M517.98016 354.54976c-80.81408 0-146.55488 66.4576-146.55488 148.15232s65.7408 148.15232 146.55488 148.15232 146.55488-66.4576 146.55488-148.15232-65.7408-148.15232-146.55488-148.15232z m0 255.34464c-58.22464 0-105.59488-48.08704-105.59488-107.19232s47.37024-107.19232 105.59488-107.19232 105.59488 48.08704 105.59488 107.19232-47.39072 107.19232-105.59488 107.19232z" p-id="3402"></path><path d="M944.49664 457.80992c-72.9088-86.26176-225.28-230.99392-426.74176-230.99392-195.70688 0-340.74624 146.90304-410.46016 217.51808l-12.10368 12.20608c-13.57824 13.57824-21.2992 34.03776-21.17632 56.17664 0.12288 21.77024 7.90528 41.75872 21.31968 54.8864l14.21312 14.0288c70.49216 69.95968 217.21088 215.53152 408.20736 215.53152 209.34656 0 357.02784-156.89728 420.08576-223.90784l5.89824-6.26688c27.19744-28.7744 22.65088-83.2512 0.75776-109.17888z m-30.5152 81.08032l-5.95968 6.32832c-59.43296 63.13984-198.61504 211.00544-390.26688 211.00544-174.12096 0-312.75008-137.56416-379.35104-203.65312l-14.4384-14.25408c-5.55008-5.4272-8.92928-15.07328-8.97024-25.8048-0.06144-10.93632 3.44064-21.25824 9.15456-26.97216l12.30848-12.3904c65.80224-66.6624 202.73152-205.33248 381.31712-205.33248 184.91392 0 327.14752 135.63904 395.4688 216.4736 10.83392 12.82048 11.24352 43.45856 0.73728 54.59968z" p-id="3403"></path></svg>