<?xml version="1.0" standalone="no"?><!DOCTYPE svg PUBLIC "-//W3C//DTD SVG 1.1//EN" "http://www.w3.org/Graphics/SVG/1.1/DTD/svg11.dtd"><svg t="1515566664404" class="icon" style="" viewBox="0 0 1292 1024" version="1.1" xmlns="http://www.w3.org/2000/svg" p-id="7906" xmlns:xlink="http://www.w3.org/1999/xlink" width="252.34375" height="200"><defs><style type="text/css"></style></defs><path d="M22.227758 310.800674A22.227758 22.227758 0 0 1 0 288.572916V38.894985A38.93809 38.93809 0 0 1 38.894985 0h249.275618a22.227758 22.227758 0 0 1 22.227759 22.227758 22.227758 22.227758 0 0 1-22.227759 22.227759H44.455517v244.117399a22.227758 22.227758 0 0 1-22.227759 22.227758zM1270.330045 310.800674a22.227758 22.227758 0 0 1-22.227758-22.227758V44.455517H1004.372832a22.227758 22.227758 0 0 1-22.227759-22.227759A22.227758 22.227758 0 0 1 1004.372832 0h249.275618a38.93809 38.93809 0 0 1 38.894985 38.894985v249.677931a22.227758 22.227758 0 0 1-22.21339 22.227758zM288.184972 1023.999928H38.966827A38.93809 38.93809 0 0 1 0.071841 985.104943V735.427012a22.227758 22.227758 0 0 1 22.227759-22.227758 22.227758 22.227758 0 0 1 22.227758 22.227758v244.117399h243.715087a22.227758 22.227758 0 0 1 22.227758 22.227759 22.227758 22.227758 0 0 1-22.285231 22.227758zM1253.662818 1023.999928h-249.289986a22.227758 22.227758 0 0 1-22.227759-22.227758 22.227758 22.227758 0 0 1 22.227759-22.227759h243.715086v-244.117399a22.227758 22.227758 0 0 1 22.242127-22.227758 22.227758 22.227758 0 0 1 22.227758 22.227758v249.677931a38.93809 38.93809 0 0 1-38.894985 38.894985zM649.389638 891.581685a354.896984 354.896984 0 0 1-252.652168-104.629953 354.896984 354.896984 0 0 1-104.629953-252.609063 354.896984 354.896984 0 0 1 104.629953-252.623432 354.896984 354.896984 0 0 1 252.609064-104.629953 354.896984 354.896984 0 0 1 252.652168 104.629953 354.896984 354.896984 0 0 1 104.629953 252.609064 354.896984 354.896984 0 0 1-104.629953 252.609063 354.896984 354.896984 0 0 1-252.609064 104.644321z m0-668.513844c-171.629331 0-311.274828 139.631129-311.274828 311.274828s139.631129 311.26046 311.274828 311.26046 311.26046-139.631129 311.26046-311.26046-139.631129-311.274828-311.26046-311.274828z" p-id="7907"></path><path d="M649.389638 318.818185a22.989278 22.989278 0 0 1-22.989278-22.989278v-95.750344a22.989278 22.989278 0 0 1 22.989278-22.989279 22.989278 22.989278 0 0 1 22.989279 22.989279v95.750344a22.989278 22.989278 0 0 1-22.989279 22.989278zM649.389638 891.581685a22.989278 22.989278 0 0 1-22.989278-22.989278v-95.750344a22.989278 22.989278 0 0 1 22.989278-22.989278 22.989278 22.989278 0 0 1 22.989279 22.989278v95.750344a22.989278 22.989278 0 0 1-22.989279 22.989278zM983.653745 557.331947h-95.750344a22.989278 22.989278 0 0 1-22.989279-22.989278 22.989278 22.989278 0 0 1 22.989279-22.989278h95.750344a22.989278 22.989278 0 0 1 22.989278 22.989278 22.989278 22.989278 0 0 1-22.989278 22.989278zM410.890245 557.331947h-95.750345a22.989278 22.989278 0 0 1-22.989278-22.989278 22.989278 22.989278 0 0 1 22.989278-22.989278h95.750345a22.989278 22.989278 0 0 1 22.989278 22.989278 22.989278 22.989278 0 0 1-22.989278 22.989278z" p-id="7908"></path></svg>