<?xml version="1.0" standalone="no"?><!DOCTYPE svg PUBLIC "-//W3C//DTD SVG 1.1//EN" "http://www.w3.org/Graphics/SVG/1.1/DTD/svg11.dtd"><svg t="1506053272953" class="icon" style="" viewBox="0 0 1024 1024" version="1.1" xmlns="http://www.w3.org/2000/svg" p-id="1007" xmlns:xlink="http://www.w3.org/1999/xlink" width="200" height="200"><defs><style type="text/css"></style></defs><path d="M512.002239 0c282.769901 0 511.997761 229.2273 511.997761 512.002239 0 282.769901-229.2273 511.997761-511.997761 511.997761-282.774938 0-512.002239-229.2273-512.002239-511.997761 0-282.774938 229.2273-512.002239 512.002239-512.002239zm183.992803 262.630419l-367.990083 0c-50.792431 0-92.342292 41.554843-92.342292 92.342292l0 242.713696c0 50.792431 41.550086 92.342292 92.342292 92.342292l116.176317 0c8.692221 4.851145 7.961932 13.946464 25.526596 16.829617l-0.36514 39.771825-76.138581 0c-24.009153 0-43.97804 19.01097-45.182558 42.963258l327.943392 0c-1.20449-23.947474-21.173405-42.963258-45.177801-42.963258l-76.129066 0-2.280939-37.533551c4.9697-5.823284 16.5688-3.769956 25.521895-17.996188l118.096628-1.071708c50.787673 0 92.342292-41.550086 92.342292-92.342292l0-242.713696c0-50.787673-41.554843-92.342292-92.342292-92.342292zm-395.9401 75.175907l423.904109 0 0 279.89643-423.904109 0 0-279.89643z" p-id="1008"></path></svg>