<?xml version="1.0" encoding="utf-8"?>
<!-- Generator: Adobe Illustrator 21.0.0, SVG Export Plug-In . SVG Version: 6.00 Build 0)  -->
<svg version="1.1" id="图层_1" xmlns="http://www.w3.org/2000/svg" xmlns:xlink="http://www.w3.org/1999/xlink" x="0px" y="0px"
	 viewBox="0 0 200 200" style="enable-background:new 0 0 200 200;" xml:space="preserve">
<path d="M113.7,0.2H86.3c-2.2,0-3.9,1.7-4.5,3.4l-3.9,17.9c-6.1,2.2-11.7,4.5-17.3,7.8l-15.7-9.5c-1.7-1.1-3.9-0.6-5.6,0.6l-19,19
	c-1.7,1.7-1.7,3.9-0.6,5.6l9.5,15.7c-3.4,5.6-5.6,11.7-7.3,17.9L4.1,82.4c-2.2,0.6-3.4,2.2-3.4,4.5v27.4c0,2.2,1.7,3.9,3.4,4.5
	l17.9,3.9c1.7,6.1,4.5,12.3,7.3,17.9l-10.1,15.1c-1.1,1.7-0.6,3.9,0.6,5.6l19,19c1.7,1.7,3.9,1.7,5.6,0.6l15.7-9.5
	c5.6,3.4,11.7,5.6,17.9,7.3l3.9,17.9c0.6,2.2,2.2,3.4,4.5,3.4h27.4c2.2,0,3.9-1.7,4.5-3.4l3.9-17.9c5-1.7,10.1-3.4,14.5-5.6
	l16.8,16.8c2.8,2.8,6.1,3.4,8.9,3.4c3.4,0,6.1-1.1,8.9-3.4l18.4-18.4c2.8-3.4,3.4-6.7,3.4-10.1c0-3.4-1.1-7.3-3.9-10.1L173,136.1
	c2.2-4.5,3.9-8.9,5-14l17.9-3.9c2.2-0.6,3.4-2.2,3.4-4.5V86.3c0-2.2-1.7-3.9-3.4-4.5L178,77.9c-1.1-6.1-3.4-11.7-6.1-17.3l9.5-15.7
	c1.1-1.7,0.6-3.9-0.6-5.6l-19.6-19.6c-1.7-1.7-3.9-1.7-5.6-0.6L140,28.7c-5.6-3.4-11.7-5.6-17.9-7.3l-3.9-17.9
	C118.2,2.4,116.5,0.2,113.7,0.2z M114.3,26.5c0.6,1.7,1.7,2.8,3.4,3.4c7.3,1.7,14,5,20.7,8.4c1.7,1.1,2.8,1.1,5,0l14.5-8.9l14,14
	l-8.9,14.5c-1.1,1.7-1.1,3.4,0,5c3.9,6.1,6.7,13.4,8.4,20.7c0.6,1.7,1.7,2.8,3.4,3.4l16.8,3.9v20.1l-16.8,3.9
	c-1.7,0.6-2.8,1.7-3.4,3.4c-1.1,4.5-2.2,8.4-3.9,12.3l-16.2-15.1c1.1-5,1.7-9.5,1.7-14.5c0-13.4-5-27.4-15.1-37.5
	c-10.1-10.1-22.4-15.1-35.2-15.1c-6.1,0-12.9,0.6-19.6,2.2c-2.8,1.1-3.9,5.6-1.7,7.8l28,28l-3.9,19l-19.6,3.4l-28-28
	c-2.2-2.2-6.7-1.1-7.3,1.7c-1.7,5.6-2.2,11.7-2.2,17.3c0,13.4,5,26.8,15.1,37.5c10.1,10.1,24,15.1,37.5,15.1c5,0,9.5-0.6,14.5-1.7
	l15.7,15.7c-3.9,1.7-8.4,3.4-12.9,4.5c-1.7,0.6-2.8,1.7-3.4,3.4l-3.9,16.8H90.8l-3.9-16.8c-0.6-1.7-1.7-2.8-3.4-3.4
	c-7.3-1.7-14-5-20.7-8.4c-1.7-1.1-2.8-1.1-5,0l-14.5,8.9l-14-14l8.9-14.5c1.1-1.7,1.1-2.8,0-5c-3.9-6.1-6.7-13.4-8.4-20.7
	c-0.6-1.7-1.7-2.8-3.4-3.4l-16.8-3.9V89.7l16.8-3.9c1.7-0.6,2.8-1.7,3.4-3.4c1.7-7.3,5-14,8.4-20.1c1.1-1.7,1.1-3.4,0-5l-8.9-14.5
	l14-14l14.5,8.9c1.7,1.1,2.8,1.1,5,0c6.1-3.9,13.4-6.7,20.7-8.4c1.7-0.6,2.8-1.7,3.4-3.4l3.9-16.8h20.1L114.3,26.5L114.3,26.5z
	 M131,69.5c8.4,8.4,12.3,19.6,12.3,30.7c0,5-0.6,10.1-2.2,14.5c-0.6,1.7,0,3.4,1.1,5l40.8,38.6c0.6,0.6,1.1,2.2,1.1,3.9
	c0,1.1-0.6,3.4-1.1,3.9l-17.9,17.3c-0.6,0.6-2.2,1.1-2.2,1.1c-0.6,0-1.7-0.6-2.2-1.1l-40.8-40.8c-1.1-1.1-2.8-1.7-4.5-1.1
	c-4.5,1.7-9.5,2.2-14.5,2.2c-11.2,0-22.9-3.9-30.7-12.3c-8.4-8.4-12.3-19.6-12.3-30.7c0-2.2,0-4.5,0.6-6.7l23.5,23.5
	c1.1,1.1,2.8,1.7,3.9,1.1l25.2-4.5c1.7-0.6,3.4-1.7,3.9-3.9l4.5-25.2c0-1.7,0-2.8-1.1-3.9L94.7,57.8c2.8-0.6,6.1-0.6,8.9-0.6
	C113.1,57.2,122.6,61.1,131,69.5z"/>
</svg>
