<?xml version="1.0" encoding="utf-8"?>
<!-- Generator: Adobe Illustrator 21.0.0, SVG Export Plug-In . SVG Version: 6.00 Build 0)  -->
<svg version="1.1" id="图层_1" xmlns="http://www.w3.org/2000/svg" xmlns:xlink="http://www.w3.org/1999/xlink" x="0px" y="0px"
	 viewBox="0 0 200 200" style="enable-background:new 0 0 200 200;" xml:space="preserve">
<g>
	<path d="M13.4,138.4c-1.2,0-1.2,0-1.2-1.2V13.4c0-1.2,0-1.2,1.2-1.2h123.8c1.2,0,1.2,0,1.2,1.2h11.1c0-7.4-4.9-12.4-12.4-12.4H13.4
		C5.9,1,1,5.9,1,13.4v123.8c0,7.4,4.9,12.4,12.4,12.4C13.4,149.5,13.4,138.4,13.4,138.4z"/>
	<path d="M38.1,161.9V38.1h123.8v12.4h12.4V38.1c0-7.4-4.9-12.4-12.4-12.4H38.1c-7.4,0-12.4,5-12.4,12.4v123.8
		c0,7.4,5,12.4,12.4,12.4V161.9z"/>
	<path d="M149.5,75.3V100h37.1v86.6H62.9V100h49.5V75.2L149.5,75.3 M149.5,62.9h-37.1c-7.4,0-12.4,5-12.4,12.4v12.4H62.9
		c-7.4,0-12.4,5-12.4,12.4v86.6c0,7.4,5,12.4,12.4,12.4h123.8c7.4,0,12.4-4.9,12.4-12.4V100c0-7.4-4.9-12.4-12.4-12.4h-24.8V75.3
		C161.9,67.8,156.9,62.9,149.5,62.9L149.5,62.9z"/>
	<path d="M130.9,124.8c9.9,0,18.6,8.7,18.6,18.6s-8.7,18.6-18.6,18.6s-18.6-8.7-18.6-18.6S121,124.8,130.9,124.8 M130.9,112.4
		c-17.3,0-30.9,13.6-30.9,30.9s13.6,30.9,30.9,30.9s30.9-13.6,30.9-30.9S148.3,112.4,130.9,112.4z M87.6,112.4H75.3v12.4h12.4V112.4
		z"/>
</g>
</svg>
