<?xml version="1.0" standalone="no"?><!DOCTYPE svg PUBLIC "-//W3C//DTD SVG 1.1//EN" "http://www.w3.org/Graphics/SVG/1.1/DTD/svg11.dtd"><svg t="1515566590621" class="icon" style="" viewBox="0 0 1024 1024" version="1.1" xmlns="http://www.w3.org/2000/svg" p-id="5171" xmlns:xlink="http://www.w3.org/1999/xlink" width="200" height="200"><defs><style type="text/css"></style></defs><path d="M215.306694 289.592584c-15.136745 0-27.409257-12.272511-27.409257-27.409257L187.897438 84.021625c0-15.136745 12.272511-27.409257 27.409257-27.409257 15.136745 0 27.409257 12.272511 27.409257 27.409257l0 178.161702C242.715951 277.320073 230.442416 289.592584 215.306694 289.592584z" p-id="5172"></path><path d="M215.306694 961.124997c-15.136745 0-27.409257-12.272511-27.409257-27.409257L187.897438 508.86766c0-15.136745 12.272511-27.409257 27.409257-27.409257 15.136745 0 27.409257 12.272511 27.409257 27.409257l0 424.847058C242.715951 948.852486 230.442416 961.124997 215.306694 961.124997z" p-id="5173"></path><path d="M210.085786 535.00597c-77.623915 0-140.767024-63.143109-140.767024-140.767024 0-77.624938 63.143109-140.768047 140.767024-140.768047 77.624938 0 140.768047 63.143109 140.768047 140.768047C350.853833 471.862861 287.710724 535.00597 210.085786 535.00597zM210.085786 308.289412c-47.391357 0-85.947488 38.558178-85.947488 85.949534s38.557154 85.947488 85.947488 85.947488 85.949534-38.557154 85.949534-85.947488S257.477142 308.289412 210.085786 308.289412z" p-id="5174"></path><path d="M235.582483 362.091782c-0.86981 0-1.766226-0.080841-2.650363-0.254803l-3.813862-0.750083c-7.42818-1.458211-12.272511-8.67252-10.813277-16.086373 1.458211-7.42818 8.644891-12.285814 16.086373-10.8143l3.813862 0.750083c7.42818 1.459235 12.272511 8.67252 10.8143 16.086373C247.734244 357.567745 242.005776 362.091782 235.582483 362.091782z" p-id="5175"></path><path d="M163.096589 421.648203c-7.574512 0-13.70514-6.130627-13.70514-13.70514 0-26.580379 14.347776-51.339272 37.434587-64.589041 6.571672-3.76065 14.94948-1.51347 18.710131 5.058203 3.773953 6.571672 1.499144 14.94948-5.058203 18.710131-14.602579 8.378831-23.676236 24.02416-23.676236 40.820708C176.800705 415.518598 170.672124 421.648203 163.096589 421.648203z" p-id="5176"></path><path d="M516.810562 536.27794c-15.136745 0-27.409257-12.272511-27.409257-27.409257L489.401306 84.021625c0-15.136745 12.272511-27.409257 27.409257-27.409257 15.136745 0 27.409257 12.272511 27.409257 27.409257l0 424.847058C544.219819 524.005428 531.947308 536.27794 516.810562 536.27794z" p-id="5177"></path><path d="M516.810562 961.124997c-15.136745 0-27.409257-12.272511-27.409257-27.409257L489.401306 755.554038c0-15.136745 12.272511-27.409257 27.409257-27.409257 15.136745 0 27.409257 12.272511 27.409257 27.409257l0 178.161702C544.219819 948.852486 531.947308 961.124997 516.810562 961.124997z" p-id="5178"></path><path d="M511.590678 781.691325c-77.623915 0-140.767024-63.143109-140.767024-140.767024 0-77.624938 63.143109-140.768047 140.767024-140.768047 77.624938 0 140.768047 63.143109 140.768047 140.768047C652.358725 718.548216 589.215616 781.691325 511.590678 781.691325zM511.590678 554.974767c-47.391357 0-85.947488 38.558178-85.947488 85.949534s38.557154 85.947488 85.947488 85.947488c47.391357 0 85.949534-38.557154 85.949534-85.947488S558.981011 554.974767 511.590678 554.974767z" p-id="5179"></path><path d="M537.086351 608.777137c-0.86981 0-1.766226-0.080841-2.650363-0.254803l-3.813862-0.750083c-7.42818-1.458211-12.272511-8.67252-10.813277-16.086373 1.458211-7.441483 8.658194-12.31242 16.086373-10.8143l3.813862 0.750083c7.42818 1.459235 12.272511 8.67252 10.8143 16.086373C549.238113 604.2531 543.509644 608.777137 537.086351 608.777137z" p-id="5180"></path><path d="M464.600457 668.333558c-7.574512 0-13.70514-6.129604-13.70514-13.70514 0-26.580379 14.347776-51.339272 37.434587-64.589041 6.583952-3.773953 14.94948-1.51347 18.710131 5.058203 3.773953 6.571672 1.499144 14.94948-5.058203 18.710131-14.602579 8.378831-23.676236 24.02416-23.676236 40.820708C478.305597 662.203954 472.177016 668.333558 464.600457 668.333558z" p-id="5181"></path><path d="M832.019571 193.658651c-15.136745 0-27.409257-12.272511-27.409257-27.409257L804.610314 84.021625c0-15.136745 12.272511-27.409257 27.409257-27.409257 15.136745 0 27.409257 12.272511 27.409257 27.409257l0 82.228793C859.428827 181.38614 847.156316 193.658651 832.019571 193.658651z" p-id="5182"></path><path d="M832.019571 961.124997c-15.136745 0-27.409257-12.272511-27.409257-27.409257L804.610314 412.93475c0-15.136745 12.272511-27.409257 27.409257-27.409257 15.136745 0 27.409257 12.272511 27.409257 27.409257l0 520.779967C859.428827 948.852486 847.156316 961.124997 832.019571 961.124997z" p-id="5183"></path><path d="M826.799686 439.07306c-77.623915 0-140.767024-63.143109-140.767024-140.767024 0-77.624938 63.143109-140.768047 140.767024-140.768047 77.624938 0 140.768047 63.143109 140.768047 140.768047C967.567733 375.928928 904.424624 439.07306 826.799686 439.07306zM826.799686 212.356502c-47.391357 0-85.947488 38.558178-85.947488 85.949534s38.557154 85.947488 85.947488 85.947488 85.949534-38.557154 85.949534-85.947488S874.190019 212.356502 826.799686 212.356502z" p-id="5184"></path><path d="M852.29536 266.158872c-0.86981 0-1.766226-0.080841-2.650363-0.254803l-3.813862-0.750083c-7.42818-1.458211-12.272511-8.67252-10.813277-16.086373 1.458211-7.42818 8.658194-12.285814 16.086373-10.8143l3.813862 0.750083c7.42818 1.459235 12.272511 8.67252 10.8143 16.086373C864.447121 261.634836 858.718653 266.158872 852.29536 266.158872z" p-id="5185"></path><path d="M779.809465 325.715293c-7.574512 0-13.70514-6.130627-13.70514-13.70514 0-26.580379 14.347776-51.339272 37.434587-64.589041 6.571672-3.748371 14.935154-1.499144 18.710131 5.058203 3.773953 6.571672 1.499144 14.94948-5.058203 18.710131-14.602579 8.378831-23.676236 24.02416-23.676236 40.820708C793.514605 319.584666 787.386024 325.715293 779.809465 325.715293z" p-id="5186"></path></svg>