<?xml version="1.0" standalone="no"?><!DOCTYPE svg PUBLIC "-//W3C//DTD SVG 1.1//EN" "http://www.w3.org/Graphics/SVG/1.1/DTD/svg11.dtd"><svg t="1506076178371" class="icon" style="" viewBox="0 0 1024 1024" version="1.1" xmlns="http://www.w3.org/2000/svg" p-id="2365" xmlns:xlink="http://www.w3.org/1999/xlink" width="200" height="200"><defs><style type="text/css"></style></defs><path d="M857.6 375.04C841.6 200.96 688.64 64 502.4 64 313.6 64 158.72 204.8 146.56 382.72 60.8 417.92 0 502.4 0 600.32v28.16c0 129.92 106.24 236.16 236.16 236.16h551.68c129.92 0 236.16-106.24 236.16-236.16v-28.16c0-105.6-70.4-195.2-166.4-225.28z m-127.36 102.4c-5.12 14.72-19.2 24.32-34.56 24.32H586.24v182.4c0 20.48-16.64 36.48-36.48 36.48H476.8c-20.48 0-36.48-16.64-36.48-36.48V501.76H330.24c-15.36 0-29.44-9.6-34.56-24.32-5.12-14.72-0.64-30.72 11.52-40.96l183.04-146.56c6.4-5.12 14.72-8.32 23.04-8.32s16 2.56 23.04 8.32l183.04 146.56c11.52 9.6 16 26.24 10.88 40.96z" fill="" p-id="2366"></path></svg>