<?xml version="1.0" encoding="utf-8"?>
<!-- Generator: Adobe Illustrator 21.0.0, SVG Export Plug-In . SVG Version: 6.00 Build 0)  -->
<svg version="1.1" id="图层_1" xmlns="http://www.w3.org/2000/svg" xmlns:xlink="http://www.w3.org/1999/xlink" x="0px" y="0px"
	 viewBox="0 0 200 200" style="enable-background:new 0 0 200 200;" xml:space="preserve">
<path d="M123.6,112.7c20.7-9.1,35.1-29.7,35.1-53.7c0-32.4-26.3-58.7-58.7-58.7S41.3,26.7,41.3,59c0,24,14.5,44.6,35.1,53.7
	c-36,10.3-62.5,43.4-62.5,82.7c0,2.3,1.9,4.2,4.2,4.2s4.2-1.9,4.2-4.2c0-42.9,34.9-77.8,77.8-77.8s77.8,34.9,77.8,77.8
	c0,2.3,1.9,4.2,4.2,4.2c2.3,0,4.2-1.9,4.2-4.2C186.1,156.2,159.6,123,123.6,112.7z M49.7,59c0-27.8,22.6-50.3,50.3-50.3
	s50.4,22.6,50.4,50.3s-22.6,50.3-50.4,50.3S49.7,86.8,49.7,59z"/>
</svg>
