<?xml version="1.0" standalone="no"?><!DOCTYPE svg PUBLIC "-//W3C//DTD SVG 1.1//EN" "http://www.w3.org/Graphics/SVG/1.1/DTD/svg11.dtd"><svg t="1515053067203" class="icon" style="" viewBox="0 0 1024 1024" version="1.1" xmlns="http://www.w3.org/2000/svg" p-id="1872" xmlns:xlink="http://www.w3.org/1999/xlink" width="200" height="200"><defs><style type="text/css"></style></defs><path d="M666.874835 822.180482c0-10.738575-8.709359-19.432585-19.432585-19.432585l-272.045953 0c-10.723226 0-19.431561 8.694009-19.431561 19.432585l0 77.726246L161.645029 899.906727l0 58.288544 699.527001 0 0-58.288544L666.874835 899.906727 666.874835 822.180482 666.874835 822.180482zM900.057665 64.371076 122.779859 64.371076c-32.202423 0-58.292638 26.072819-58.292638 58.274218l0 544.088836c0 32.181957 26.091238 58.292638 58.292638 58.292638l777.276782 0c32.202423 0 58.293661-26.110681 58.293661-58.292638L958.350302 122.645294C958.350302 90.443895 932.259064 64.371076 900.057665 64.371076L900.057665 64.371076zM900.057665 647.267776c0 10.719132-8.713452 19.427468-19.432585 19.427468L142.213467 666.695245c-10.738575 0-19.427468-8.709359-19.427468-19.427468L122.785999 142.058436c0-10.743692 8.688893-19.432585 19.427468-19.432585l738.411613 0c10.720156 0 19.432585 8.689916 19.432585 19.432585L900.057665 647.267776 900.057665 647.267776zM518.879176 180.958398" p-id="1873"></path><path d="M507.681136 265.280876c-117.588115 0-181.215248 121.280204-181.215248 121.280204s82.592067 121.478725 186.271404 121.478725c103.678314 0 183.634344-122.535801 183.634344-122.535801S625.268228 265.280876 507.681136 265.280876L507.681136 265.280876zM511.419274 475.350289c-48.983621 0-88.691995-39.70735-88.691995-88.689948 0-48.984644 39.708374-88.691995 88.691995-88.691995 48.981574 0 88.689948 39.70735 88.689948 88.691995C600.109222 435.642938 560.401872 475.350289 511.419274 475.350289L511.419274 475.350289zM455.201901 386.66034c0-7.358595 1.463328-14.715143 4.279467-21.51399 2.817162-6.798846 6.983041-13.033851 12.186554-18.238386 5.204535-5.202489 11.440563-9.370415 18.23941-12.18553 6.7968-2.816139 14.153348-4.279467 21.512966-4.279467 7.358595 0 14.71412 1.463328 21.512966 4.279467 6.7968 2.815115 13.033851 6.983041 18.23634 12.18553 5.203512 5.204535 9.371438 11.43954 12.18553 18.238386 2.816139 6.798846 4.28049 14.155395 4.28049 21.51399M567.902706 386.273531c0 7.357572-1.463328 14.71412-4.279467 21.512966-2.815115 6.798846-6.982018 13.034874-12.186554 18.238386-5.202489 5.202489-11.43954 9.370415-18.235316 12.187577-6.79987 2.813069-14.155395 4.27742-21.512966 4.27742-7.360641 0-14.71719-1.464351-21.51399-4.27742-6.798846-2.817162-13.034874-6.985088-18.238386-12.187577-5.204535-5.203512-9.370415-11.43954-12.186554-18.238386-2.817162-6.798846-4.279467-14.155395-4.279467-21.512966" p-id="1874"></path></svg>