<?xml version="1.0" encoding="utf-8"?>
<!-- Generator: Adobe Illustrator 21.0.0, SVG Export Plug-In . SVG Version: 6.00 Build 0)  -->
<svg version="1.1" id="图层_1" xmlns="http://www.w3.org/2000/svg" xmlns:xlink="http://www.w3.org/1999/xlink" x="0px" y="0px"
	 viewBox="0 0 64 64" style="enable-background:new 0 0 64 64;" xml:space="preserve">
<path d="M31.3,32c9.1,0,16.4-7.2,16.4-16c0-8.8-7.3-16-16.4-16c-9.1,0-16.4,7.2-16.4,16C14.9,24.8,22.3,32,31.3,32L31.3,32z
	 M38.8,37.3H25.2C13.5,37.3,4,46.6,4,58v1.3C4,64,13.5,64,25.2,64h13.7C50.5,64,60,63.8,60,59.3V58C60,46.6,50.5,37.3,38.8,37.3
	L38.8,37.3z"/>
</svg>
